# Blender v2.80 (sub 75) OBJ File: 'two.blend'
# www.blender.org
o Cube
v -0.158559 -0.791471 -0.142061
v -0.158559 -0.791471 0.142061
v 0.465500 -0.525075 -0.142061
v 0.592446 -0.652022 -0.142061
v 0.514080 -0.534739 -0.142061
v 0.555264 -0.562257 -0.142061
v 0.582783 -0.603441 -0.142061
v 0.592446 -0.664524 -0.142061
v 0.465500 -0.791471 -0.142061
v 0.582783 -0.713105 -0.142061
v 0.555264 -0.754289 -0.142061
v 0.514080 -0.781808 -0.142061
v 0.592446 -0.652022 0.142061
v 0.465500 -0.525075 0.142061
v 0.582783 -0.603441 0.142061
v 0.555264 -0.562257 0.142061
v 0.514080 -0.534739 0.142061
v 0.465500 -0.791471 0.142061
v 0.592446 -0.664524 0.142061
v 0.514080 -0.781808 0.142061
v 0.555264 -0.754289 0.142061
v 0.582783 -0.713105 0.142061
v 0.173615 -0.207127 -0.142061
v 0.173615 -0.207127 0.142061
v -0.389745 -0.791471 -0.142061
v -0.529927 -0.651289 -0.142061
v -0.443391 -0.780800 -0.142061
v -0.488869 -0.750413 -0.142061
v -0.519256 -0.704934 -0.142061
v -0.529927 -0.651289 0.142061
v -0.389745 -0.791471 0.142061
v -0.519256 -0.704934 0.142061
v -0.488869 -0.750413 0.142061
v -0.443391 -0.780800 0.142061
v -0.201206 -0.185812 0.142061
v -0.201206 -0.185812 -0.142061
v 0.005083 -0.004201 0.142061
v 0.005083 -0.004201 -0.142061
v 0.390120 -0.016712 0.142061
v 0.390120 -0.016712 -0.142061
v 0.169580 0.144405 0.142061
v 0.169580 0.144405 -0.142061
v 0.492807 0.111869 0.142061
v 0.492807 0.111869 -0.142061
v 0.246416 0.295984 0.142061
v 0.246416 0.295984 -0.142061
v 0.554962 0.266917 0.142061
v 0.554962 0.266917 -0.142061
v 0.244747 0.394486 0.142061
v 0.244747 0.394486 -0.142061
v 0.556925 0.457365 0.142061
v 0.556925 0.457365 -0.142061
v 0.210249 0.502478 0.142061
v 0.210249 0.502478 -0.142061
v 0.436591 0.670697 0.142061
v 0.436591 0.670697 -0.142061
v -0.038990 -0.389201 -0.142061
v -0.038990 -0.389201 0.142061
v -0.373952 -0.352569 0.142061
v -0.373952 -0.352569 -0.142061
v 0.089202 0.592929 0.142061
v 0.089202 0.592929 -0.142061
v 0.180769 0.826116 0.142061
v 0.180769 0.826116 -0.142061
v 0.322406 0.766015 -0.142061
v 0.322406 0.766015 0.142061
v 0.153675 0.559681 0.142061
v 0.153675 0.559681 -0.142061
v 0.231990 0.460295 -0.142061
v 0.512231 0.568856 -0.142061
v 0.512231 0.568856 0.142061
v 0.231990 0.460295 0.142061
v -0.008660 0.602907 0.142061
v -0.008660 0.602907 -0.142061
v -0.024644 0.840853 0.142061
v -0.024644 0.840853 -0.142061
v -0.101498 0.581614 0.142061
v -0.101498 0.581614 -0.142061
v -0.214816 0.803853 0.142061
v -0.214816 0.803853 -0.142061
v -0.207963 0.488095 0.142061
v -0.207963 0.488095 -0.142061
v -0.437917 0.658921 0.142061
v -0.437917 0.658921 -0.142061
v -0.257636 0.380762 0.142061
v -0.257636 0.380762 -0.142061
v -0.523263 0.470759 0.142061
v -0.523263 0.470759 -0.142061
v -0.333188 0.743367 -0.142061
v -0.333188 0.743367 0.142061
v -0.160886 0.535853 0.142061
v -0.160886 0.535853 -0.142061
v -0.499143 -0.491029 0.142061
v -0.529927 -0.570976 0.142061
v -0.520911 -0.528547 0.142061
v -0.529927 -0.570976 -0.142061
v -0.499143 -0.491029 -0.142061
v -0.520911 -0.528547 -0.142061
v -0.140627 -0.504699 -0.142061
v -0.131415 -0.525075 -0.142061
v -0.142306 -0.517028 -0.142061
v -0.131415 -0.525075 0.142061
v -0.140627 -0.504699 0.142061
v -0.142306 -0.517028 0.142061
v -0.232800 0.434428 -0.142061
v -0.489575 0.564341 -0.142061
v -0.489575 0.564341 0.142061
v -0.232800 0.434428 0.142061
v -0.434648 0.227962 0.142061
v -0.272835 0.320791 0.142061
v -0.393215 0.222836 0.142061
v -0.352611 0.230938 0.142061
v -0.316813 0.251474 0.142061
v -0.289324 0.282436 0.142061
v -0.272835 0.320791 -0.142061
v -0.434648 0.227962 -0.142061
v -0.289324 0.282436 -0.142061
v -0.316813 0.251474 -0.142061
v -0.352611 0.230938 -0.142061
v -0.393215 0.222836 -0.142061
v -0.543208 0.398869 0.142061
v -0.450202 0.232450 0.142061
v -0.547982 0.357113 0.142061
v -0.539674 0.315804 0.142061
v -0.519098 0.278987 0.142061
v -0.488268 0.250265 0.142061
v -0.450202 0.232450 -0.142061
v -0.543208 0.398869 -0.142061
v -0.488268 0.250265 -0.142061
v -0.519098 0.278987 -0.142061
v -0.539674 0.315804 -0.142061
v -0.547982 0.357113 -0.142061
vt 0.788524 0.624056
vt 0.788524 0.422873
vt 0.880118 0.422873
vt 0.880118 0.624056
vt 0.146686 0.922822
vt 0.055091 0.922822
vt 0.055091 0.832584
vt 0.146686 0.832584
vt 0.390290 0.218689
vt 0.695980 0.213216
vt 0.720770 0.207821
vt 0.741609 0.193351
vt 0.755324 0.172008
vt 0.759827 0.147040
vt 0.759712 0.140637
vt 0.754318 0.115847
vt 0.739848 0.095008
vt 0.718504 0.081293
vt 0.693537 0.076790
vt 0.373946 0.082512
vt 0.255551 0.084632
vt 0.228177 0.090589
vt 0.205165 0.106568
vt 0.190020 0.130137
vt 0.185048 0.157707
vt 0.185784 0.198837
vt 0.788524 0.359001
vt 0.788524 0.354971
vt 0.880118 0.354971
vt 0.880118 0.359001
vt 0.788524 0.291099
vt 0.880118 0.291099
vt 0.880118 0.307067
vt 0.788524 0.307067
vt 0.880118 0.323035
vt 0.788524 0.323035
vt 0.880118 0.339003
vt 0.788524 0.339003
vt 0.788524 0.406905
vt 0.880118 0.406905
vt 0.788524 0.390937
vt 0.880118 0.390937
vt 0.788524 0.374969
vt 0.880118 0.374969
vt 0.146686 0.972420
vt 0.055091 0.972420
vt 0.549416 0.378719
vt 0.357659 0.393072
vt 0.464969 0.484186
vt 0.662038 0.474249
vt 0.384786 0.222910
vt 0.385759 0.229209
vt 0.202282 0.239497
vt 0.190790 0.220482
vt 0.788524 0.698585
vt 0.880118 0.698585
vt 0.880118 0.716218
vt 0.788524 0.716218
vt 0.880118 0.733851
vt 0.788524 0.733851
vt 0.880118 0.751484
vt 0.788524 0.751484
vt 0.880118 0.769116
vt 0.788524 0.769116
vt 0.267664 0.309257
vt 0.438868 0.287425
vt 0.549416 0.378719
vt 0.357659 0.393072
vt 0.895609 0.173997
vt 0.987204 0.173997
vt 0.987204 0.251400
vt 0.895609 0.251400
vt 0.438868 0.287425
vt 0.267664 0.309257
vt 0.550573 0.558782
vt 0.715805 0.539156
vt 0.987204 0.340003
vt 0.895609 0.340003
vt 0.055091 0.739634
vt 0.146686 0.739634
vt 0.662038 0.474249
vt 0.464969 0.484186
vt 0.146686 0.686586
vt 0.055091 0.686586
vt 0.055091 0.632735
vt 0.146686 0.632735
vt 0.715804 0.539156
vt 0.550573 0.558782
vt 0.987204 0.411468
vt 0.895609 0.411468
vt 0.895609 0.466254
vt 0.987204 0.466254
vt 0.987204 0.498013
vt 0.895609 0.498013
vt 0.591312 0.635703
vt 0.749057 0.617988
vt 0.749057 0.617989
vt 0.591312 0.635703
vt 0.729942 0.773009
vt 0.585431 0.719982
vt 0.574683 0.741784
vt 0.692139 0.825856
vt 0.591360 0.686163
vt 0.751808 0.715502
vt 0.751808 0.715503
vt 0.591360 0.686163
vt 0.055091 0.571335
vt 0.146686 0.571335
vt 0.146686 0.443766
vt 0.055091 0.443766
vt 0.055091 0.394164
vt 0.146686 0.394164
vt 0.585431 0.719982
vt 0.729942 0.773009
vt 0.692139 0.825857
vt 0.574683 0.741784
vt 0.146686 0.532613
vt 0.055091 0.532613
vt 0.055091 0.491716
vt 0.146686 0.491716
vt 0.895609 0.519624
vt 0.987204 0.519624
vt 0.987204 0.534922
vt 0.895609 0.534922
vt 0.788524 0.098667
vt 0.880118 0.098667
vt 0.880118 0.795008
vt 0.788524 0.795008
vt 0.385759 0.229209
vt 0.202282 0.239497
vt 0.513523 0.789216
vt 0.562553 0.907795
vt 0.457493 0.917225
vt 0.463497 0.795223
vt 0.895609 0.560859
vt 0.987204 0.560859
vt 0.987204 0.584244
vt 0.895609 0.584244
vt 0.634537 0.875718
vt 0.546235 0.771597
vt 0.513523 0.789215
vt 0.562553 0.907795
vt 0.546235 0.771598
vt 0.634537 0.875718
vt 0.146686 0.327774
vt 0.055091 0.327774
vt 0.055091 0.265317
vt 0.146686 0.265317
vt 0.987204 0.615956
vt 0.895609 0.615956
vt 0.463497 0.795223
vt 0.457493 0.917225
vt 0.146686 0.222463
vt 0.055091 0.222463
vt 0.055091 0.179092
vt 0.146686 0.179092
vt 0.987204 0.646662
vt 0.895609 0.646662
vt 0.415758 0.785170
vt 0.359764 0.900021
vt 0.359763 0.900021
vt 0.415758 0.785170
vt 0.216859 0.779882
vt 0.347167 0.710997
vt 0.333955 0.683741
vt 0.198749 0.732266
vt 0.895609 0.670832
vt 0.987204 0.670832
vt 0.987204 0.692451
vt 0.895609 0.692451
vt 0.298589 0.870130
vt 0.384925 0.762279
vt 0.360378 0.738253
vt 0.244181 0.827845
vt 0.384924 0.762279
vt 0.298588 0.870130
vt 0.244181 0.827845
vt 0.360378 0.738253
vt 0.325622 0.653168
vt 0.316826 0.633677
vt 0.302464 0.618074
vt 0.283943 0.607885
vt 0.263075 0.604108
vt 0.241903 0.607113
vt 0.233979 0.609554
vt 0.214648 0.619026
vt 0.199123 0.634018
vt 0.188923 0.653061
vt 0.185048 0.674292
vt 0.187875 0.695633
vt 0.347166 0.710997
vt 0.216859 0.779882
vt 0.198748 0.732266
vt 0.333955 0.683741
vt 0.146686 0.144350
vt 0.055091 0.144350
vt 0.055091 0.112286
vt 0.146686 0.112286
vt 0.895609 0.711515
vt 0.987204 0.711515
vt 0.987204 0.730579
vt 0.895609 0.730579
vt 0.187875 0.695633
vt 0.185047 0.674293
vt 0.188923 0.653062
vt 0.199123 0.634018
vt 0.214648 0.619026
vt 0.233979 0.609554
vt 0.241903 0.607113
vt 0.263075 0.604108
vt 0.283943 0.607885
vt 0.302464 0.618074
vt 0.316826 0.633677
vt 0.325622 0.653169
vt 0.987204 0.822660
vt 0.895609 0.822660
vt 0.895609 0.817441
vt 0.987204 0.817441
vt 0.055091 0.088235
vt 0.146686 0.088235
vt 0.880118 0.822975
vt 0.788524 0.822975
vt 0.788524 0.808991
vt 0.880118 0.808991
vt 0.895609 0.113820
vt 0.987204 0.113820
vt 0.146686 0.980796
vt 0.055091 0.980796
vt 0.055091 0.976431
vt 0.146686 0.976431
vt 0.895609 0.803982
vt 0.987204 0.803982
vt 0.895609 0.790634
vt 0.987204 0.790634
vt 0.895609 0.777330
vt 0.987204 0.777330
vt 0.895609 0.763982
vt 0.987204 0.763982
vt 0.895609 0.750523
vt 0.987204 0.750523
vt 0.055091 0.074686
vt 0.146686 0.074686
vt 0.055092 0.061103
vt 0.146686 0.061103
vt 0.055092 0.047506
vt 0.146686 0.047506
vt 0.055092 0.033922
vt 0.146686 0.033922
vt 0.055092 0.020373
vt 0.146686 0.020373
vt 0.390289 0.218689
vt 0.185784 0.198837
vt 0.384786 0.222910
vt 0.190790 0.220482
vt 0.185047 0.157707
vt 0.190020 0.130137
vt 0.205165 0.106568
vt 0.228177 0.090589
vt 0.255551 0.084633
vt 0.373946 0.082513
vt 0.693537 0.076790
vt 0.718504 0.081293
vt 0.739848 0.095008
vt 0.754318 0.115847
vt 0.759712 0.140637
vt 0.759827 0.147040
vt 0.755323 0.172008
vt 0.741609 0.193351
vt 0.720770 0.207821
vt 0.695979 0.213216
vn 0.0000 -1.0000 0.0000
vn 0.6505 -0.7595 0.0000
vn 0.0000 0.0000 -1.0000
vn 1.0000 0.0000 0.0000
vn 0.1951 0.9808 0.0000
vn 0.5556 0.8315 0.0000
vn 0.8315 0.5556 0.0000
vn 0.9808 0.1951 0.0000
vn 0.1951 -0.9808 0.0000
vn 0.5556 -0.8315 0.0000
vn 0.8315 -0.5556 0.0000
vn 0.9808 -0.1951 0.0000
vn 0.7507 -0.6606 0.0000
vn -0.0000 0.0000 1.0000
vn -0.1951 -0.9808 0.0000
vn -0.5556 -0.8315 0.0000
vn -0.8315 -0.5556 0.0000
vn -0.9808 -0.1951 0.0000
vn -0.6945 0.7195 0.0000
vn -0.6608 0.7506 0.0000
vn 0.6604 -0.7509 0.0000
vn 0.9282 -0.3721 0.0000
vn 0.7814 -0.6240 0.0000
vn -0.6704 0.7420 0.0000
vn -0.9999 -0.0169 0.0000
vn -0.8920 0.4521 0.0000
vn 0.9999 -0.0103 0.0000
vn 0.3906 0.9206 0.0000
vn 0.8028 0.5963 0.0000
vn -0.8889 -0.4581 0.0000
vn 0.0000 1.0000 0.0000
vn -1.0000 0.0000 0.0000
vn -0.4583 -0.8888 0.0000
vn -0.7110 -0.7032 0.0000
vn 0.6408 0.7677 0.0000
vn -0.9817 -0.1903 0.0000
vn 0.9282 0.3721 0.0000
vn -0.1910 0.9816 0.0000
vn 0.0716 0.9974 0.0000
vn -0.1014 -0.9948 0.0000
vn -0.6277 0.7785 0.0000
vn 0.2236 -0.9747 0.0000
vn 0.7122 -0.7020 0.0000
vn -0.9409 0.3387 0.0000
vn 0.9075 -0.4200 0.0000
vn -0.2772 -0.9608 0.0000
vn -0.9636 0.2673 0.0000
vn 0.6104 -0.7921 0.0000
vn -0.4550 0.8905 0.0000
vn -0.8650 0.5018 0.0000
vn -0.9782 0.2079 0.0000
vn -0.7418 0.6707 0.0000
vn 0.5943 0.8042 0.0000
vn 0.9909 -0.1349 0.0000
vn -0.8776 0.4793 0.0000
vn -0.1228 -0.9924 0.0000
vn 0.1957 -0.9807 0.0000
vn 0.4976 -0.8674 0.0000
vn 0.7478 -0.6639 0.0000
vn 0.9187 -0.3950 0.0000
vn -0.9935 0.1136 0.0000
vn -0.9804 -0.1972 0.0000
vn -0.8729 -0.4879 0.0000
vn -0.6816 -0.7317 0.0000
vn -0.4239 -0.9057 0.0000
vn 0.9694 -0.2457 0.0000
s off
f 1/1/1 9/2/1 18/3/1 2/4/1
f 58/5/2 57/6/2 23/7/2 24/8/2
f 100/9/3 3/10/3 5/11/3 6/12/3 7/13/3 4/14/3 8/15/3 10/16/3 11/17/3 12/18/3 9/19/3 1/20/3 25/21/3 27/22/3 28/23/3 29/24/3 26/25/3 96/26/3
f 8/27/4 4/28/4 13/29/4 19/30/4
f 3/31/5 14/32/5 17/33/5 5/34/5
f 5/34/6 17/33/6 16/35/6 6/36/6
f 6/36/7 16/35/7 15/37/7 7/38/7
f 7/38/8 15/37/8 13/29/8 4/28/8
f 18/3/9 9/2/9 12/39/9 20/40/9
f 20/40/10 12/39/10 11/41/10 21/42/10
f 21/42/11 11/41/11 10/43/11 22/44/11
f 22/44/12 10/43/12 8/27/12 19/30/12
f 103/45/13 99/46/13 57/6/13 58/5/13
f 23/47/3 36/48/3 38/49/3 40/50/3
f 104/51/14 103/52/14 93/53/14 95/54/14
f 25/55/15 31/56/15 34/57/15 27/58/15
f 27/58/16 34/57/16 33/59/16 28/60/16
f 28/60/17 33/59/17 32/61/17 29/62/17
f 29/62/18 32/61/18 30/63/18 26/64/18
f 1/1/1 2/4/1 31/56/1 25/55/1
f 59/65/14 58/66/14 24/67/14 35/68/14
f 60/69/19 59/70/19 35/71/19 36/72/19
f 57/73/3 60/74/3 36/48/3 23/47/3
f 40/50/3 38/49/3 42/75/3 44/76/3
f 36/72/20 35/71/20 37/77/20 38/78/20
f 24/8/21 23/7/21 40/79/21 39/80/21
f 35/68/14 24/67/14 39/81/14 37/82/14
f 43/83/22 44/84/22 48/85/22 47/86/22
f 37/82/14 39/81/14 43/87/14 41/88/14
f 39/80/23 40/79/23 44/84/23 43/83/23
f 38/78/24 37/77/24 41/89/24 42/90/24
f 46/91/25 45/92/25 49/93/25 50/94/25
f 42/90/26 41/89/26 45/92/26 46/91/26
f 44/76/3 42/75/3 46/95/3 48/96/3
f 41/88/14 43/87/14 47/97/14 45/98/14
f 70/99/3 69/100/3 54/101/3 56/102/3
f 48/96/3 46/95/3 50/103/3 52/104/3
f 45/98/14 47/97/14 51/105/14 49/106/14
f 47/86/27 48/85/27 52/107/27 51/108/27
f 66/109/28 65/110/28 64/111/28 63/112/28
f 72/113/14 71/114/14 55/115/14 53/116/14
f 71/117/29 70/118/29 56/119/29 55/120/29
f 69/121/30 72/122/30 53/123/30 54/124/30
f 3/31/31 100/125/31 102/126/31 14/32/31
f 30/63/32 94/127/32 96/128/32 26/64/32
f 93/53/14 103/52/14 58/66/14 59/65/14
f 57/73/3 99/129/3 97/130/3 60/74/3
f 61/131/14 63/132/14 75/133/14 73/134/14
f 68/135/33 67/136/33 61/137/33 62/138/33
f 65/139/3 68/140/3 62/141/3 64/142/3
f 67/143/14 66/144/14 63/132/14 61/131/14
f 53/116/14 55/115/14 66/144/14 67/143/14
f 56/102/3 54/101/3 68/140/3 65/139/3
f 54/124/34 53/123/34 67/136/34 68/135/34
f 55/120/35 56/119/35 65/110/35 66/109/35
f 50/94/36 49/93/36 72/122/36 69/121/36
f 51/108/37 52/107/37 70/118/37 71/117/37
f 49/106/14 51/105/14 71/114/14 72/113/14
f 52/104/3 50/103/3 69/100/3 70/99/3
f 75/145/38 76/146/38 80/147/38 79/148/38
f 63/112/39 64/111/39 76/146/39 75/145/39
f 62/138/40 61/137/40 73/149/40 74/150/40
f 64/142/3 62/141/3 74/151/3 76/152/3
f 90/153/41 89/154/41 84/155/41 83/156/41
f 74/150/42 73/149/42 77/157/42 78/158/42
f 76/152/3 74/151/3 78/159/3 80/160/3
f 73/134/14 75/133/14 79/161/14 77/162/14
f 106/163/3 105/164/3 86/165/3 88/166/3
f 92/167/43 91/168/43 81/169/43 82/170/43
f 89/171/3 92/172/3 82/173/3 84/174/3
f 91/175/14 90/176/14 83/177/14 81/178/14
f 88/166/3 86/165/3 115/179/3 117/180/3 118/181/3 119/182/3 120/183/3 116/184/3 127/185/3 129/186/3 130/187/3 131/188/3 132/189/3 128/190/3
f 108/191/14 107/192/14 87/193/14 85/194/14
f 107/195/44 106/196/44 88/197/44 87/198/44
f 105/199/45 108/200/45 85/201/45 86/202/45
f 85/194/14 87/193/14 121/203/14 123/204/14 124/205/14 125/206/14 126/207/14 122/208/14 109/209/14 111/210/14 112/211/14 113/212/14 114/213/14 110/214/14
f 122/215/46 127/216/46 116/217/46 109/218/46
f 87/198/47 88/197/47 128/219/47 121/220/47
f 77/162/14 79/161/14 90/176/14 91/175/14
f 80/160/3 78/159/3 92/172/3 89/171/3
f 78/158/48 77/157/48 91/168/48 92/167/48
f 79/148/49 80/147/49 89/154/49 90/153/49
f 93/221/50 97/222/50 98/223/50 95/224/50
f 95/224/51 98/223/51 96/128/51 94/127/51
f 97/225/52 93/226/52 59/70/52 60/69/52
f 102/227/53 100/228/53 101/229/53 104/230/53
f 104/230/54 101/229/54 99/46/54 103/45/54
f 82/170/45 81/169/45 108/200/45 105/199/45
f 83/156/55 84/155/55 106/196/55 107/195/55
f 81/178/14 83/177/14 107/192/14 108/191/14
f 84/174/3 82/173/3 105/164/3 106/163/3
f 109/218/56 116/217/56 120/231/56 111/232/56
f 111/232/57 120/231/57 119/233/57 112/234/57
f 112/234/58 119/233/58 118/235/58 113/236/58
f 113/236/59 118/235/59 117/237/59 114/238/59
f 114/238/60 117/237/60 115/239/60 110/240/60
f 121/220/61 128/219/61 132/241/61 123/242/61
f 123/242/62 132/241/62 131/243/62 124/244/62
f 124/244/63 131/243/63 130/245/63 125/246/63
f 125/246/64 130/245/64 129/247/64 126/248/64
f 126/248/65 129/247/65 127/249/65 122/250/65
f 86/202/66 85/201/66 110/240/66 115/239/66
f 102/251/14 104/51/14 95/54/14 94/252/14
f 99/129/3 101/253/3 98/254/3 97/130/3
f 101/253/3 100/9/3 96/26/3 98/254/3
f 102/251/14 94/252/14 30/255/14 32/256/14 33/257/14 34/258/14 31/259/14 2/260/14 18/261/14 20/262/14 21/263/14 22/264/14 19/265/14 13/266/14 15/267/14 16/268/14 17/269/14 14/270/14
