# Blender v2.80 (sub 75) OBJ File: 'four.blend'
# www.blender.org
o Cube
v 0.332053 -0.144542 -0.138842
v 0.080528 -0.144542 0.138842
v 0.332053 -0.144542 0.138842
v 0.080528 -0.144542 -0.138842
v 0.332053 -0.375835 -0.138842
v 0.332053 -0.375835 0.138842
v 0.080528 -0.375835 -0.138842
v 0.080528 -0.375835 0.138842
v 0.080528 0.418100 0.138842
v 0.332053 0.418100 -0.138842
v 0.332053 0.418100 0.138842
v 0.080528 0.418100 -0.138842
v -0.337293 -0.375835 0.138842
v -0.337293 -0.375835 -0.138842
v -0.337293 -0.144542 0.138842
v -0.337293 -0.144542 -0.138842
v 0.448583 -0.144542 -0.138842
v 0.556238 -0.252197 -0.138842
v 0.481850 -0.149811 -0.138842
v 0.511861 -0.165102 -0.138842
v 0.535678 -0.188919 -0.138842
v 0.550969 -0.218930 -0.138842
v 0.556238 -0.252197 0.138842
v 0.448583 -0.144542 0.138842
v 0.550969 -0.218930 0.138842
v 0.535678 -0.188919 0.138842
v 0.511861 -0.165102 0.138842
v 0.481850 -0.149811 0.138842
v 0.556238 -0.268180 -0.138842
v 0.448583 -0.375835 -0.138842
v 0.550969 -0.301447 -0.138842
v 0.535678 -0.331458 -0.138842
v 0.511861 -0.355274 -0.138842
v 0.481850 -0.370566 -0.138842
v 0.448583 -0.375835 0.138842
v 0.556238 -0.268180 0.138842
v 0.481850 -0.370566 0.138842
v 0.511861 -0.355274 0.138842
v 0.535678 -0.331458 0.138842
v 0.550969 -0.301447 0.138842
v 0.332053 -0.592461 -0.138842
v 0.207104 -0.717409 -0.138842
v 0.325937 -0.631072 -0.138842
v 0.308190 -0.665903 -0.138842
v 0.280547 -0.693546 -0.138842
v 0.245715 -0.711294 -0.138842
v 0.207104 -0.717409 0.138842
v 0.332053 -0.592461 0.138842
v 0.245715 -0.711294 0.138842
v 0.280547 -0.693546 0.138842
v 0.308190 -0.665903 0.138842
v 0.325937 -0.631072 0.138842
v 0.205477 -0.717409 -0.138842
v 0.080528 -0.592461 -0.138842
v 0.166866 -0.711294 -0.138842
v 0.132034 -0.693546 -0.138842
v 0.104391 -0.665903 -0.138842
v 0.086644 -0.631072 -0.138842
v 0.080528 -0.592461 0.138842
v 0.205477 -0.717409 0.138842
v 0.086644 -0.631072 0.138842
v 0.104391 -0.665903 0.138842
v 0.132034 -0.693546 0.138842
v 0.166866 -0.711294 0.138842
v -0.471233 -0.375835 -0.138842
v -0.588292 -0.258775 -0.138842
v -0.507406 -0.370106 -0.138842
v -0.540039 -0.353478 -0.138842
v -0.565936 -0.327581 -0.138842
v -0.582563 -0.294949 -0.138842
v -0.588292 -0.258775 0.138842
v -0.471233 -0.375835 0.138842
v -0.582563 -0.294949 0.138842
v -0.565936 -0.327581 0.138842
v -0.540039 -0.353478 0.138842
v -0.507406 -0.370106 0.138842
v -0.560663 -0.105539 0.138842
v -0.588292 -0.192339 0.138842
v -0.540495 -0.144542 0.138842
v -0.580200 -0.147118 0.138842
v -0.588292 -0.192339 -0.138842
v -0.560663 -0.105539 -0.138842
v -0.540495 -0.144542 -0.138842
v -0.580200 -0.147118 -0.138842
v 0.212020 0.802937 -0.138842
v 0.332053 0.679993 -0.138842
v 0.258211 0.790505 -0.138842
v 0.297018 0.764575 -0.138842
v 0.322947 0.725769 -0.138842
v 0.332053 0.679993 0.138842
v 0.212020 0.802937 0.138842
v 0.322947 0.725769 0.138842
v 0.297018 0.764575 0.138842
v 0.258211 0.790505 0.138842
v 0.011384 0.674391 -0.138842
v 0.189750 0.802521 -0.138842
v 0.080528 0.659036 -0.138842
v 0.046950 0.718398 -0.138842
v 0.095312 0.763648 -0.138842
v 0.143008 0.792319 -0.138842
v 0.189750 0.802521 0.138842
v 0.011384 0.674391 0.138842
v 0.080528 0.659036 0.138842
v 0.143008 0.792319 0.138842
v 0.095312 0.763647 0.138842
v 0.046950 0.718398 0.138842
vt 0.505958 0.687259
vt 0.506487 0.812884
vt 0.563751 0.887458
vt 0.575363 0.887626
vt 0.599421 0.881042
vt 0.619597 0.867437
vt 0.633032 0.847146
vt 0.637679 0.823259
vt 0.637104 0.686706
vt 0.570878 0.094916
vt 0.590770 0.098205
vt 0.608672 0.107480
vt 0.622832 0.121833
vt 0.631864 0.139859
vt 0.634883 0.159794
vt 0.635359 0.272744
vt 0.504213 0.273297
vt 0.503737 0.160347
vt 0.506841 0.140201
vt 0.516018 0.122001
vt 0.530370 0.107527
vt 0.548492 0.098197
vt 0.568611 0.094923
vt 0.637104 0.686706
vt 0.637679 0.823259
vt 0.633032 0.847146
vt 0.619597 0.867437
vt 0.599421 0.881042
vt 0.575363 0.887626
vt 0.563751 0.887458
vt 0.506487 0.812884
vt 0.505957 0.687259
vt 0.504213 0.273297
vt 0.504721 0.393894
vt 0.635867 0.393341
vt 0.635359 0.272744
vt 0.635867 0.393341
vt 0.504721 0.393894
vt 0.696627 0.393085
vt 0.713961 0.390265
vt 0.729575 0.382226
vt 0.741941 0.369755
vt 0.749848 0.354074
vt 0.752522 0.336717
vt 0.752487 0.328383
vt 0.749667 0.311049
vt 0.741628 0.295435
vt 0.729157 0.283069
vt 0.713476 0.275162
vt 0.696119 0.272488
vt 0.696119 0.272488
vt 0.713476 0.275162
vt 0.729157 0.283069
vt 0.741628 0.295435
vt 0.749667 0.311049
vt 0.752487 0.328383
vt 0.752522 0.336716
vt 0.749848 0.354074
vt 0.741941 0.369755
vt 0.729575 0.382226
vt 0.713961 0.390265
vt 0.696627 0.393085
vt 0.286867 0.394812
vt 0.286359 0.274215
vt 0.216522 0.274509
vt 0.197673 0.277576
vt 0.180695 0.286317
vt 0.167249 0.299877
vt 0.158651 0.316928
vt 0.155743 0.335802
vt 0.155889 0.370442
vt 0.180916 0.395259
vt 0.869363 0.388976
vt 0.869363 0.582821
vt 0.773693 0.582821
vt 0.773693 0.388976
vt 0.869363 0.968220
vt 0.773693 0.968220
vt 0.773693 0.824270
vt 0.869363 0.824270
vt 0.286867 0.394812
vt 0.286359 0.274215
vt 0.180916 0.395258
vt 0.155889 0.370442
vt 0.155743 0.335802
vt 0.158651 0.316928
vt 0.167249 0.299877
vt 0.180695 0.286317
vt 0.197673 0.277576
vt 0.216522 0.274509
vt 0.567193 0.094932
vt 0.547329 0.098388
vt 0.529506 0.107814
vt 0.515468 0.122285
vt 0.506588 0.140387
vt 0.503737 0.160347
vt 0.634883 0.159794
vt 0.631610 0.139676
vt 0.622280 0.121553
vt 0.607806 0.107201
vt 0.589605 0.098024
vt 0.569460 0.094920
vt 0.470468 0.821042
vt 0.170486 0.415639
vt 0.160208 0.394003
vt 0.160208 0.394003
vt 0.170486 0.415639
vt 0.470469 0.821042
vt 0.489109 0.843909
vt 0.514425 0.867397
vt 0.539357 0.882241
vt 0.539357 0.882241
vt 0.514425 0.867397
vt 0.489109 0.843909
vt 0.032954 0.675590
vt 0.032954 0.342353
vt 0.128624 0.342353
vt 0.128624 0.675589
vt 0.032954 0.761231
vt 0.032954 0.753557
vt 0.128624 0.753557
vt 0.128624 0.761231
vt 0.889394 0.032162
vt 0.985063 0.032163
vt 0.985063 0.072311
vt 0.889393 0.072310
vt 0.128624 0.287810
vt 0.128624 0.310699
vt 0.032954 0.310699
vt 0.032954 0.287810
vt 0.358051 0.828929
vt 0.432539 0.828929
vt 0.432539 0.924413
vt 0.358051 0.924413
vt 0.290840 0.924413
vt 0.289174 0.924393
vt 0.289174 0.828910
vt 0.290840 0.828929
vt 0.221962 0.924393
vt 0.147474 0.924393
vt 0.147474 0.828910
vt 0.221962 0.828910
vt 0.985063 0.130332
vt 0.985063 0.135838
vt 0.889393 0.135838
vt 0.889393 0.130332
vt 0.032954 0.178573
vt 0.128624 0.178573
vt 0.128624 0.224719
vt 0.032954 0.224719
vt 0.985063 0.234007
vt 0.985063 0.427853
vt 0.889393 0.427853
vt 0.889393 0.234008
vt 0.032954 0.034623
vt 0.128624 0.034623
vt 0.985063 0.193860
vt 0.889393 0.193860
vt 0.889393 0.182255
vt 0.985063 0.182255
vt 0.889393 0.170651
vt 0.985063 0.170651
vt 0.889393 0.159047
vt 0.985063 0.159047
vt 0.889393 0.147442
vt 0.985063 0.147442
vt 0.889393 0.118727
vt 0.985063 0.118728
vt 0.889393 0.107123
vt 0.985063 0.107123
vt 0.889393 0.095519
vt 0.985063 0.095519
vt 0.889393 0.083914
vt 0.985063 0.083915
vt 0.304282 0.828929
vt 0.304282 0.924413
vt 0.317724 0.828929
vt 0.317724 0.924413
vt 0.331167 0.828929
vt 0.331167 0.924413
vt 0.344609 0.828929
vt 0.344609 0.924413
vt 0.275731 0.924393
vt 0.275731 0.828910
vt 0.262289 0.924393
vt 0.262289 0.828910
vt 0.248847 0.924393
vt 0.248847 0.828910
vt 0.235405 0.924393
vt 0.235405 0.828910
vt 0.032954 0.275192
vt 0.128624 0.275192
vt 0.032954 0.262574
vt 0.128624 0.262574
vt 0.032954 0.249955
vt 0.128624 0.249956
vt 0.032954 0.237337
vt 0.128624 0.237338
vt 0.032954 0.326526
vt 0.128624 0.326526
vt 0.985063 0.582802
vt 0.889394 0.582802
vt 0.889394 0.566322
vt 0.985063 0.566321
vt 0.889393 0.550242
vt 0.985063 0.550241
vt 0.889393 0.534162
vt 0.985063 0.534162
vt 0.889393 0.518082
vt 0.985063 0.518082
vt 0.032954 0.737074
vt 0.128624 0.737074
vt 0.032954 0.717901
vt 0.128624 0.717901
vt 0.032954 0.695083
vt 0.128624 0.695083
vn 0.0000 0.0000 -1.0000
vn 0.0000 0.0000 1.0000
vn -1.0000 0.0000 0.0000
vn 0.0000 1.0000 0.0000
vn 0.8028 -0.5962 0.0000
vn -0.5643 0.4346 -0.7019
vn -0.6255 0.3716 -0.6860
vn -0.6255 0.3716 0.6860
vn -0.5643 0.4346 0.7019
vn 0.0897 0.7306 -0.6768
vn -0.0848 0.7229 -0.6857
vn -0.0848 0.7229 0.6857
vn 0.0897 0.7306 0.6768
vn 0.3015 -0.3015 0.9045
vn 0.3015 -0.3015 -0.9045
vn 0.0568 -0.7217 -0.6898
vn 0.0568 -0.7217 0.6898
vn -0.7217 -0.0568 0.6898
vn -0.7231 0.0642 0.6877
vn -0.7231 0.0642 -0.6877
vn -0.7217 -0.0568 -0.6898
vn -0.3015 -0.3015 0.9045
vn -0.3015 -0.3015 -0.9045
vn -0.0568 -0.7217 -0.6898
vn -0.0568 -0.7217 0.6898
vn 0.7217 -0.0568 -0.6898
vn 0.7217 -0.0568 0.6898
vn 0.7217 0.0568 -0.6898
vn 0.7217 0.0568 0.6898
vn 0.0000 -0.7071 -0.7071
vn 0.0000 -0.7071 0.7071
vn 0.3015 0.3015 -0.9045
vn 0.7071 0.0000 -0.7071
vn 0.7071 0.0000 0.7071
vn 0.3015 0.3015 0.9045
vn 0.0568 0.7217 -0.6898
vn 0.0568 0.7217 0.6898
vn 0.2284 0.7030 0.6735
vn 0.2284 0.7030 -0.6735
vn 0.4345 0.5980 0.6735
vn 0.4345 0.5980 -0.6735
vn 0.5980 0.4345 0.6735
vn 0.5980 0.4345 -0.6735
vn 0.7030 0.2284 0.6735
vn 0.7030 0.2284 -0.6735
vn 0.7030 -0.2284 0.6735
vn 0.7030 -0.2284 -0.6735
vn 0.5980 -0.4345 0.6735
vn 0.5980 -0.4345 -0.6735
vn 0.4345 -0.5980 0.6735
vn 0.4345 -0.5980 -0.6735
vn 0.2284 -0.7030 0.6735
vn 0.2284 -0.7030 -0.6735
vn -0.2284 -0.7030 0.6735
vn -0.2284 -0.7030 -0.6735
vn -0.4345 -0.5980 0.6735
vn -0.4345 -0.5980 -0.6735
vn -0.5980 -0.4345 0.6735
vn -0.5980 -0.4345 -0.6735
vn -0.7030 -0.2284 0.6735
vn -0.7030 -0.2284 -0.6735
vn -0.6997 0.2227 -0.6788
vn -0.6997 0.2227 0.6788
vn 0.3059 0.6741 0.6723
vn 0.3059 0.6741 -0.6723
vn 0.5276 0.5276 0.6657
vn 0.5276 0.5276 -0.6657
vn 0.6894 0.2855 0.6657
vn 0.6894 0.2855 -0.6657
vn 0.7244 0.0713 0.6857
vn 0.7244 0.0713 -0.6857
vn -0.2732 0.6880 -0.6723
vn -0.2732 0.6880 0.6723
vn -0.4394 0.5820 -0.6841
vn -0.4394 0.5820 0.6841
vn -0.5287 0.4917 -0.6918
vn -0.5287 0.4917 0.6918
s off
f 12/1/1 97/2/1 96/3/1 85/4/1 87/5/1 88/6/1 89/7/1 86/8/1 10/9/1
f 47/10/2 49/11/2 50/12/2 51/13/2 52/14/2 48/15/2 6/16/2 8/17/2 59/18/2 61/19/2 62/20/2 63/21/2 64/22/2 60/23/2
f 11/24/2 90/25/2 92/26/2 93/27/2 94/28/2 91/29/2 101/30/2 103/31/2 9/32/2
f 7/33/1 4/34/1 1/35/1 5/36/1
f 6/16/2 3/37/2 2/38/2 8/17/2
f 5/36/1 1/35/1 17/39/1 19/40/1 20/41/1 21/42/1 22/43/1 18/44/1 29/45/1 31/46/1 32/47/1 33/48/1 34/49/1 30/50/1
f 3/37/2 6/16/2 35/51/2 37/52/2 38/53/2 39/54/2 40/55/2 36/56/2 23/57/2 25/58/2 26/59/2 27/60/2 28/61/2 24/62/2
f 16/63/1 14/64/1 65/65/1 67/66/1 68/67/1 69/68/1 70/69/1 66/70/1 81/71/1 83/72/1
f 4/34/1 12/1/1 10/9/1 1/35/1
f 2/73/3 9/74/3 12/75/3 4/76/3
f 3/37/2 11/24/2 9/32/2 2/38/2
f 2/77/4 4/78/4 16/79/4 15/80/4
f 4/34/1 7/33/1 14/64/1 16/63/1
f 8/17/2 2/38/2 15/81/2 13/82/2
f 13/82/2 15/81/2 79/83/2 78/84/2 71/85/2 73/86/2 74/87/2 75/88/2 76/89/2 72/90/2
f 9/74/5 15/80/5 16/79/5 12/75/5
f 53/91/1 55/92/1 56/93/1 57/94/1 58/95/1 54/96/1 7/33/1 5/36/1 41/97/1 43/98/1 44/99/1 45/100/1 46/101/1 42/102/1
f 103/31/2 102/103/2 77/104/2 79/83/2 15/81/2 9/32/2
f 77/104/2 80/105/2 79/83/2
f 80/105/2 78/84/2 79/83/2
f 81/71/1 84/106/1 83/72/1
f 84/106/1 82/107/1 83/72/1
f 12/1/1 16/63/1 83/72/1 82/107/1 95/108/1 97/2/1
f 95/108/1 98/109/1 97/2/1
f 98/109/1 99/110/1 97/2/1
f 99/110/1 100/111/1 97/2/1
f 100/111/1 96/3/1 97/2/1
f 101/30/2 104/112/2 103/31/2
f 104/112/2 105/113/2 103/31/2
f 105/113/2 106/114/2 103/31/2
f 106/114/2 102/103/2 103/31/2
s 1
f 95/115/6 82/116/7 77/117/8 102/118/9
f 85/119/10 96/120/11 101/121/12 91/122/13
f 6/123/14 5/124/15 30/125/16 35/126/17
f 71/127/18 78/128/19 81/129/20 66/130/21
f 59/131/18 8/132/22 7/133/23 54/134/21
f 53/135/24 42/136/16 47/137/17 60/138/25
f 41/139/26 5/140/15 6/141/14 48/142/27
f 29/143/26 18/144/28 23/145/29 36/146/27
f 14/147/30 13/148/31 72/149/25 65/150/24
f 1/151/32 10/152/33 11/153/34 3/154/35
f 7/155/23 8/156/22 13/148/31 14/147/30
f 17/157/36 24/158/37 28/159/38 19/160/39
f 19/160/39 28/159/38 27/161/40 20/162/41
f 20/162/41 27/161/40 26/163/42 21/164/43
f 21/164/43 26/163/42 25/165/44 22/166/45
f 22/166/45 25/165/44 23/145/29 18/144/28
f 29/143/26 36/146/27 40/167/46 31/168/47
f 31/168/47 40/167/46 39/169/48 32/170/49
f 32/170/49 39/169/48 38/171/50 33/172/51
f 33/172/51 38/171/50 37/173/52 34/174/53
f 34/174/53 37/173/52 35/126/17 30/125/16
f 1/151/32 3/154/35 24/158/37 17/157/36
f 53/135/24 60/138/25 64/175/54 55/176/55
f 55/176/55 64/175/54 63/177/56 56/178/57
f 56/178/57 63/177/56 62/179/58 57/180/59
f 57/180/59 62/179/58 61/181/60 58/182/61
f 58/182/61 61/181/60 59/131/18 54/134/21
f 47/137/17 42/136/16 46/183/53 49/184/52
f 49/184/52 46/183/53 45/185/51 50/186/50
f 50/186/50 45/185/51 44/187/49 51/188/48
f 51/188/48 44/187/49 43/189/47 52/190/46
f 52/190/46 43/189/47 41/139/26 48/142/27
f 71/127/18 66/130/21 70/191/61 73/192/60
f 73/192/60 70/191/61 69/193/59 74/194/58
f 74/194/58 69/193/59 68/195/57 75/196/56
f 75/196/56 68/195/57 67/197/55 76/198/54
f 76/198/54 67/197/55 65/150/24 72/149/25
f 77/117/8 82/116/7 84/199/62 80/200/63
f 80/200/63 84/199/62 81/129/20 78/128/19
f 85/201/10 91/202/13 94/203/64 87/204/65
f 87/204/65 94/203/64 93/205/66 88/206/67
f 88/206/67 93/205/66 92/207/68 89/208/69
f 89/208/69 92/207/68 90/209/70 86/210/71
f 101/121/12 96/120/11 100/211/72 104/212/73
f 104/212/73 100/211/72 99/213/74 105/214/75
f 105/214/75 99/213/74 98/215/76 106/216/77
f 106/216/77 98/215/76 95/115/6 102/118/9
f 10/152/33 86/210/71 90/209/70 11/153/34
